<svg version="1.1" id="Layer_1" xmlns="http://www.w3.org/2000/svg" xmlns:xlink="http://www.w3.org/1999/xlink" x="0px" y="0px"
	 width="100%" viewBox="0 0 800 800" enable-background="new 0 0 800 800" xml:space="preserve">
<path fill="#00503C" opacity="1.000000" stroke="none" 
	d="
M539.000000,801.000000 
	C359.333344,801.000000 180.166672,801.000000 1.000000,801.000000 
	C1.000000,534.333313 1.000000,267.666656 1.000000,1.000000 
	C267.666656,1.000000 534.333313,1.000000 801.000000,1.000000 
	C801.000000,267.666656 801.000000,534.333313 801.000000,801.000000 
	C713.833313,801.000000 626.666687,801.000000 539.000000,801.000000 
M474.950531,690.450623 
	C483.190887,682.218140 491.431244,673.985657 499.931427,665.493591 
	C489.776337,655.350281 479.903870,645.446655 469.982330,635.592285 
	C461.363617,627.031921 458.311310,617.133240 462.962677,605.570740 
	C467.329071,594.716797 476.539062,589.170837 489.589752,589.170105 
	C543.752136,589.166931 597.914551,589.168640 652.076965,589.168640 
	C653.982605,589.168640 655.888245,589.168640 657.606628,589.168640 
	C657.606628,564.950806 657.606628,541.555542 657.606628,517.998657 
	C642.719299,517.998657 628.225708,518.042603 613.732544,517.984680 
	C602.269897,517.938904 592.754700,511.200592 588.975403,500.382996 
	C584.917480,488.767822 588.721497,479.354553 597.095886,471.007233 
	C635.338379,432.888428 673.476562,394.664917 711.698547,356.525482 
	C712.973267,355.253510 714.744751,354.479340 715.972229,353.677277 
	C698.338196,336.049103 681.743225,319.459717 664.078369,301.800720 
	C663.416382,302.846283 662.671692,304.635834 661.410339,305.916504 
	C652.406067,315.058472 643.296082,324.096375 634.220398,333.168060 
	C629.427368,337.958984 623.666016,340.713776 616.885681,340.969330 
	C600.956055,341.569702 589.187988,329.394379 589.179138,312.297058 
	C589.151184,258.301300 589.168762,204.305557 589.168701,150.309799 
	C589.168701,148.387100 589.168640,146.464401 589.168640,144.473969 
	C565.171387,144.473969 541.929382,144.473969 518.160950,144.473969 
	C518.160950,146.570679 518.160889,148.360184 518.160889,150.149689 
	C518.160706,162.148743 518.309937,174.150711 518.075378,186.145187 
	C517.998535,190.073120 517.586487,194.236115 516.194580,197.855896 
	C509.247986,215.921509 486.741577,220.262177 472.720734,206.280975 
	C434.014008,167.683716 395.399902,128.993561 356.742706,90.346619 
	C355.383270,88.987556 353.954956,87.697411 353.007538,86.800194 
	C336.087402,103.732597 319.515167,120.316864 302.237946,137.606583 
	C303.351746,138.453888 304.958191,139.420029 306.252289,140.701584 
	C315.370117,149.730850 324.509949,158.740738 333.474121,167.921494 
	C342.964417,177.641113 343.680054,191.775894 335.420471,202.544739 
	C329.410339,210.380753 321.075378,212.845734 311.627106,212.841858 
	C257.798004,212.819687 203.968918,212.831223 150.139816,212.831299 
	C148.238083,212.831299 146.336334,212.831299 144.534073,212.831299 
	C144.534073,236.958282 144.534073,260.196991 144.534073,283.839142 
	C158.541214,283.839142 172.179214,283.804321 185.816727,283.867737 
	C188.633591,283.880829 191.536072,283.891632 194.249161,284.535370 
	C204.375977,286.938171 210.889694,293.453217 213.688278,303.332520 
	C216.528061,313.357239 213.625519,321.998260 206.298676,329.317719 
	C167.627197,367.950378 128.983307,406.610687 90.336586,445.268066 
	C88.979652,446.625366 87.693588,448.053528 86.821625,448.975800 
	C103.760124,465.900513 120.342903,482.469788 137.203247,499.316406 
	C146.756912,489.724609 156.604248,479.793640 166.502197,469.913391 
	C175.619476,460.812469 185.798050,458.457336 196.510162,462.874603 
	C207.115036,467.247650 212.828751,476.397095 212.829636,489.051941 
	C212.833405,543.214355 212.831253,597.376770 212.831268,651.539185 
	C212.831268,653.479431 212.831284,655.419678 212.831284,657.505920 
	C236.859024,657.505920 260.249268,657.505920 284.001099,657.505920 
	C284.001099,643.202026 283.995056,629.228210 284.002930,615.254456 
	C284.009827,603.020142 289.782227,593.848572 300.198364,589.488586 
	C310.803558,585.049438 320.933167,587.336914 329.788361,596.191833 
	C368.205566,634.607422 406.626709,673.019104 445.004547,711.473938 
	C446.406494,712.878662 447.371063,714.719910 448.759583,716.666199 
	C457.985260,707.431641 466.217896,699.191162 474.950531,690.450623 
z"/>
<path fill="#C7FE32" opacity="1.000000" stroke="none" 
	d="
M474.700531,690.700623 
	C466.217896,699.191162 457.985260,707.431641 448.759583,716.666199 
	C447.371063,714.719910 446.406494,712.878662 445.004547,711.473938 
	C406.626709,673.019104 368.205566,634.607422 329.788361,596.191833 
	C320.933167,587.336914 310.803558,585.049438 300.198364,589.488586 
	C289.782227,593.848572 284.009827,603.020142 284.002930,615.254456 
	C283.995056,629.228210 284.001099,643.202026 284.001099,657.505920 
	C260.249268,657.505920 236.859024,657.505920 212.831284,657.505920 
	C212.831284,655.419678 212.831268,653.479431 212.831268,651.539185 
	C212.831253,597.376770 212.833405,543.214355 212.829636,489.051941 
	C212.828751,476.397095 207.115036,467.247650 196.510162,462.874603 
	C185.798050,458.457336 175.619476,460.812469 166.502197,469.913391 
	C156.604248,479.793640 146.756912,489.724609 137.203247,499.316406 
	C120.342903,482.469788 103.760124,465.900513 86.821625,448.975800 
	C87.693588,448.053528 88.979652,446.625366 90.336586,445.268066 
	C128.983307,406.610687 167.627197,367.950378 206.298676,329.317719 
	C213.625519,321.998260 216.528061,313.357239 213.688278,303.332520 
	C210.889694,293.453217 204.375977,286.938171 194.249161,284.535370 
	C191.536072,283.891632 188.633591,283.880829 185.816727,283.867737 
	C172.179214,283.804321 158.541214,283.839142 144.534073,283.839142 
	C144.534073,260.196991 144.534073,236.958282 144.534073,212.831299 
	C146.336334,212.831299 148.238083,212.831299 150.139816,212.831299 
	C203.968918,212.831223 257.798004,212.819687 311.627106,212.841858 
	C321.075378,212.845734 329.410339,210.380753 335.420471,202.544739 
	C343.680054,191.775894 342.964417,177.641113 333.474121,167.921494 
	C324.509949,158.740738 315.370117,149.730850 306.252289,140.701584 
	C304.958191,139.420029 303.351746,138.453888 302.237946,137.606583 
	C319.515167,120.316864 336.087402,103.732597 353.007538,86.800194 
	C353.954956,87.697411 355.383270,88.987556 356.742706,90.346619 
	C395.399902,128.993561 434.014008,167.683716 472.720734,206.280975 
	C486.741577,220.262177 509.247986,215.921509 516.194580,197.855896 
	C517.586487,194.236115 517.998535,190.073120 518.075378,186.145187 
	C518.309937,174.150711 518.160706,162.148743 518.160889,150.149689 
	C518.160889,148.360184 518.160950,146.570679 518.160950,144.473969 
	C541.929382,144.473969 565.171387,144.473969 589.168640,144.473969 
	C589.168640,146.464401 589.168701,148.387100 589.168701,150.309799 
	C589.168762,204.305557 589.151184,258.301300 589.179138,312.297058 
	C589.187988,329.394379 600.956055,341.569702 616.885681,340.969330 
	C623.666016,340.713776 629.427368,337.958984 634.220398,333.168060 
	C643.296082,324.096375 652.406067,315.058472 661.410339,305.916504 
	C662.671692,304.635834 663.416382,302.846283 664.078369,301.800720 
	C681.743225,319.459717 698.338196,336.049103 715.972229,353.677277 
	C714.744751,354.479340 712.973267,355.253510 711.698547,356.525482 
	C673.476562,394.664917 635.338379,432.888428 597.095886,471.007233 
	C588.721497,479.354553 584.917480,488.767822 588.975403,500.382996 
	C592.754700,511.200592 602.269897,517.938904 613.732544,517.984680 
	C628.225708,518.042603 642.719299,517.998657 657.606628,517.998657 
	C657.606628,541.555542 657.606628,564.950806 657.606628,589.168640 
	C655.888245,589.168640 653.982605,589.168640 652.076965,589.168640 
	C597.914551,589.168640 543.752136,589.166931 489.589752,589.170105 
	C476.539062,589.170837 467.329071,594.716797 462.962677,605.570740 
	C458.311310,617.133240 461.363617,627.031921 469.982330,635.592285 
	C479.903870,645.446655 489.776337,655.350281 499.931427,665.493591 
	C491.431244,673.985657 483.190887,682.218140 474.700531,690.700623 
M299.145813,488.344391 
	C330.917633,523.559631 370.321320,539.324463 417.594574,534.091675 
	C492.039917,525.851196 545.630493,454.692963 533.795654,380.211945 
	C521.576355,303.311188 447.391541,252.941391 371.394226,269.945099 
	C314.448212,282.686249 271.316681,332.250214 267.189056,390.085510 
	C264.568115,426.809418 275.121063,459.440338 299.145813,488.344391 
z"/>
<path fill="#00503C" opacity="1.000000" stroke="none" 
	d="
M298.921295,488.069336 
	C275.121063,459.440338 264.568115,426.809418 267.189056,390.085510 
	C271.316681,332.250214 314.448212,282.686249 371.394226,269.945099 
	C447.391541,252.941391 521.576355,303.311188 533.795654,380.211945 
	C545.630493,454.692963 492.039917,525.851196 417.594574,534.091675 
	C370.321320,539.324463 330.917633,523.559631 298.921295,488.069336 
z"/>
</svg>