<svg viewBox="0 0 200 200" xmlns="http://www.w3.org/2000/svg">
  <path fill="#FF0066" d="M31,-56.8C41.7,-47.5,52.8,-42.2,63.7,-33.4C74.6,-24.6,85.2,-12.3,87.1,1.1C89,14.5,82.3,29.1,74.2,42.7C66.1,56.4,56.7,69.2,44.1,70.5C31.5,71.9,15.8,61.9,2,58.4C-11.8,55,-23.5,58,-32.1,54.4C-40.7,50.7,-46.2,40.2,-49.4,30C-52.6,19.9,-53.7,9.9,-53.2,0.3C-52.7,-9.4,-50.6,-18.7,-48.8,-31.4C-47,-44,-45.4,-59.9,-37.3,-70.7C-29.2,-81.4,-14.6,-86.9,-2.2,-83.1C10.2,-79.2,20.3,-66,31,-56.8Z" transform="translate(100 100)" />
</svg>