<svg xmlns="http://www.w3.org/2000/svg" viewBox="0 0 1440 320"><path fill="#e7008a" fill-opacity="1" d="M0,32L21.8,58.7C43.6,85,87,139,131,149.3C174.5,160,218,128,262,133.3C305.5,139,349,181,393,218.7C436.4,256,480,288,524,282.7C567.3,277,611,235,655,197.3C698.2,160,742,128,785,144C829.1,160,873,224,916,240C960,256,1004,224,1047,208C1090.9,192,1135,192,1178,165.3C1221.8,139,1265,85,1309,90.7C1352.7,96,1396,160,1418,192L1440,224L1440,320L1418.2,320C1396.4,320,1353,320,1309,320C1265.5,320,1222,320,1178,320C1134.5,320,1091,320,1047,320C1003.6,320,960,320,916,320C872.7,320,829,320,785,320C741.8,320,698,320,655,320C610.9,320,567,320,524,320C480,320,436,320,393,320C349.1,320,305,320,262,320C218.2,320,175,320,131,320C87.3,320,44,320,22,320L0,320Z"></path></svg>