<svg viewBox="0 0 200 200" xmlns="http://www.w3.org/2000/svg">
  <path fill="#FF0066" d="M31,-55.5C43.1,-46.6,57.9,-44.3,58.3,-36.2C58.8,-28,44.8,-14,42.8,-1.2C40.8,11.7,50.7,23.3,52.7,35.7C54.7,48,48.7,61,38.6,59.8C28.5,58.6,14.3,43.2,0.9,41.7C-12.5,40.2,-25.1,52.6,-38.5,55.8C-52,59,-66.4,52.8,-74.2,42C-81.9,31.1,-83,15.6,-81.3,0.9C-79.7,-13.7,-75.4,-27.4,-68.3,-39.4C-61.2,-51.4,-51.4,-61.7,-39.6,-70.7C-27.7,-79.8,-13.9,-87.5,-2.2,-83.7C9.4,-79.8,18.9,-64.4,31,-55.5Z" transform="translate(100 100)" />
</svg>